# xmcd
#
# Track frame offsets:
#	150
#	18498
#	33939
#	44181
#	76455
#	87277
#	104515
#	118528
#	136213
#	148171
#
# Disc length: 2064 seconds
#
# Revision: 1
# Processed by: cddbd v1.5.2PL0 Copyright (c) Steve Scherf et al.
# Submitted via: audiograbber 1.83.01
#
DISCID=89080e0a
DTITLE=Johnny Cash - At San Quentin
DYEAR=1969
DGENRE=Country
TTITLE0=Wanted Man 
TTITLE1=Wreck Of The Old 97
TTITLE2=I Walk The Line
TTITLE3=Darling Companion
TTITLE4=Starkville City Jail
TTITLE5=San Quentin
TTITLE6=San Quentin
TTITLE7=A Boy Named Sue
TTITLE8=Peace In The Valley
TTITLE9=Folsom Prison Blues
EXTD=
EXTT0=
EXTT1=
EXTT2=
EXTT3=
EXTT4=
EXTT5=
EXTT6=
EXTT7=
EXTT8=
EXTT9=
PLAYORDER=
